<?xml version="1.0" encoding="utf-8"?>
<!-- Generator: Adobe Illustrator 26.5.0, SVG Export Plug-In . SVG Version: 6.00 Build 0)  -->
<svg version="1.1" id="Layer_1" xmlns="http://www.w3.org/2000/svg" xmlns:xlink="http://www.w3.org/1999/xlink" x="0px" y="0px"
	 viewBox="0 0 612 792" style="enable-background:new 0 0 612 792;" xml:space="preserve">
<style type="text/css">
	.st0{fill:#FFDE17;}
</style>
<g>
	<circle cx="306.46" cy="306.15" r="178.32"/>
	<circle class="st0" cx="306.46" cy="306.15" r="149.3"/>
	<g>
		<path d="M436.22,263.59c-0.64-5.06-2.33-9.03-3.68-11.62c-10.88,8.98-21.77,17.97-32.65,26.95c-8.89-2.63-17.78-5.27-26.67-7.9
			c-1.99-9.14-3.99-18.28-5.98-27.42c11.34-9.91,22.69-19.83,34.03-29.74c-6.21-2.89-17.93-7.14-32.19-5.11
			c-13.98,1.99-23.41,9-30.73,14.45c-6.46,4.81-13.68,10.17-18.48,18.55c-12.21,21.26-0.67,47.56,1.38,52.04
			c-5.37,4.49-10.73,8.98-16.1,13.48c-26.52,26.33-53.04,52.66-79.56,79c-1.04,2.24-2.9,7.12-1.84,13.01
			c1.67,9.24,9.38,15.44,16.56,17.66c6.93,2.14,12.98,0.47,15.64-0.46c32.35-30.98,64.69-61.96,97.04-92.94
			c4.27,1.96,11.27,4.55,20.24,5.11c9.09,0.57,16.01-1.19,18.4-1.86c15.39-4.32,24.51-14.52,28.05-18.59
			c1.67-1.92,9.55-11.2,13.8-26.02C436.41,271.88,436.6,266.59,436.22,263.59z M248.49,402.18c-4.7,0-8.51-3.85-8.51-8.6
			c0-4.75,3.81-8.6,8.51-8.6c4.7,0,8.51,3.85,8.51,8.6C257,398.33,253.19,402.18,248.49,402.18z"/>
		<path d="M272.89,288.45c-1.69,0.46-3.37,0.93-5.06,1.39c-2.45-2.94-4.91-5.89-7.36-8.83c0-5.27,0-10.53,0-15.8
			c-14.26-14.25-28.51-28.5-42.77-42.75c-1.66-1.48-5.49-4.48-11.04-5.11c-9.59-1.1-16.41,5.77-17.94,7.44
			c-6.99,7.61-8.1,20.17-2.76,31.6c13.03,13.17,26.06,26.33,39.09,39.5c5.67,0.77,11.34,1.55,17.02,2.32
			c2.61,2.17,5.21,4.34,7.82,6.51c0.31,2.79,0.61,5.58,0.92,8.36c2.3,1.55,4.6,3.1,6.9,4.65c7.36-7.13,14.72-14.25,22.08-21.38
			C277.49,293.71,275.19,291.08,272.89,288.45z M233.97,285.83c-2.33,2.36-13.98-5.58-26.02-17.74s-19.9-23.93-17.56-26.29
			c2.33-2.36,13.98,5.58,26.02,17.74C228.44,271.71,236.3,283.48,233.97,285.83z M247.71,271.95c-2.33,2.36-13.98-5.58-26.02-17.74
			c-12.03-12.16-19.9-23.93-17.56-26.29c2.33-2.36,13.98,5.58,26.02,17.74C242.19,257.82,250.05,269.59,247.71,271.95z"/>
		<path d="M276.94,305.45c25.29,27.26,50.59,54.52,75.88,81.78c0.49-0.48,4.03-3.83,9.2-3.25c6.35,0.72,9.08,6.71,9.2,6.97
			c5.83,7.43,11.65,14.87,17.48,22.3c-6.13,5.89-12.26,11.77-18.4,17.66c-7.67-5.73-15.33-11.46-23-17.19
			c-0.81-0.49-4.44-2.82-5.8-7.63c-1.44-5.13,0.77-9.26,1.2-10.02c-25.29-26.49-50.59-52.97-75.88-79.46
			C270.2,312.88,273.57,309.17,276.94,305.45z"/>
	</g>
</g>
</svg>
